<svg width="27" height="27" viewBox="0 0 27 27" fill="none" xmlns="http://www.w3.org/2000/svg">
<path d="M13.5898 10.4534C11.832 10.4534 10.4258 11.8596 10.4258 13.5588C10.4258 15.3167 11.832 16.7229 13.5898 16.7229C15.2891 16.7229 16.6953 15.3167 16.6953 13.5588C16.6953 11.8596 15.2891 10.4534 13.5898 10.4534ZM20.8555 8.05103C20.5625 7.23071 19.918 6.58618 19.0977 6.29321C17.8672 5.76587 14.9375 5.88306 13.5898 5.88306C12.1836 5.88306 9.25391 5.76587 8.02344 6.29321C7.20312 6.58618 6.55859 7.23071 6.26562 8.05103C5.79688 9.28149 5.85547 12.2112 5.85547 13.5588C5.85547 14.9651 5.79688 17.8948 6.26562 19.1252C6.55859 19.9456 7.20312 20.5901 8.02344 20.8831C9.25391 21.4104 12.1836 21.2932 13.5898 21.2932C14.9375 21.2932 17.8672 21.4104 19.0977 20.8831C19.918 20.5901 20.5625 19.9456 20.8555 19.1252C21.3828 17.8948 21.2656 14.9651 21.2656 13.5588C21.2656 12.2112 21.3828 9.28149 20.8555 8.05103ZM13.5898 18.3635C10.8945 18.3635 8.78516 16.2542 8.78516 13.5588C8.78516 10.9221 10.8945 8.75415 13.5898 8.75415C16.2266 8.75415 18.3945 10.9221 18.3945 13.5588V13.6174C18.3945 16.2542 16.2266 18.4221 13.5898 18.4221V18.3635ZM18.5703 9.69165C17.9258 9.69165 17.457 9.2229 17.457 8.57837C17.457 7.93384 17.9258 7.46509 18.5703 7.46509C19.1562 7.46509 19.6836 7.93384 19.6836 8.57837C19.6836 9.2229 19.1562 9.69165 18.5703 9.69165ZM23.9023 0.433838H3.27734C1.69531 0.433838 0.464844 1.7229 0.464844 3.24634V23.8713C0.464844 25.4534 1.69531 26.6838 3.27734 26.6838H23.9023C25.4258 26.6838 26.7148 25.4534 26.7148 23.8713V3.24634C26.7148 1.7229 25.4258 0.433838 23.9023 0.433838ZM22.8477 17.426C22.7891 18.9495 22.4375 20.2971 21.3828 21.3518C20.2695 22.4651 18.9219 22.8167 17.457 22.8752C15.875 22.9924 11.2461 22.9924 9.72266 22.8752C8.19922 22.8167 6.85156 22.4651 5.79688 21.3518C4.68359 20.2971 4.33203 18.9495 4.27344 17.426C4.15625 15.9026 4.15625 11.2737 4.27344 9.69165C4.33203 8.22681 4.68359 6.87915 5.79688 5.76587C6.85156 4.71118 8.19922 4.35962 9.72266 4.30103C11.2461 4.18384 15.875 4.18384 17.457 4.30103C18.9219 4.35962 20.2695 4.71118 21.3828 5.82446C22.4375 6.87915 22.7891 8.22681 22.8477 9.75024C22.9648 11.2737 22.9648 15.9026 22.8477 17.426Z" fill="#486284"/>
</svg>
