<svg width="27" height="27" viewBox="0 0 27 27" fill="none" xmlns="http://www.w3.org/2000/svg">
<path d="M24.5723 0.433838H2.01367C1.01758 0.433838 0.197266 1.31274 0.197266 2.36743V24.8088C0.197266 25.8635 1.01758 26.6838 2.01367 26.6838H24.5723C25.5684 26.6838 26.4473 25.8635 26.4473 24.8088V2.36743C26.4473 1.31274 25.5684 0.433838 24.5723 0.433838ZM8.10742 22.9338H4.24023V10.4534H8.10742V22.9338ZM6.17383 8.69556C4.88477 8.69556 3.88867 7.69946 3.88867 6.46899C3.88867 5.23853 4.88477 4.18384 6.17383 4.18384C7.4043 4.18384 8.40039 5.23853 8.40039 6.46899C8.40039 7.69946 7.4043 8.69556 6.17383 8.69556ZM22.6973 22.9338H18.7715V16.8401C18.7715 15.4338 18.7715 13.5588 16.7793 13.5588C14.7285 13.5588 14.4355 15.1409 14.4355 16.7815V22.9338H10.5684V10.4534H14.2598V12.1526H14.3184C14.8457 11.1565 16.1348 10.1018 18.0098 10.1018C21.9355 10.1018 22.6973 12.7385 22.6973 16.0784V22.9338Z" fill="#486284"/>
</svg>
