<svg width="16" height="21" viewBox="0 0 16 21" fill="none" xmlns="http://www.w3.org/2000/svg">
<path d="M6.78711 20.3279C7.13867 20.8748 7.95898 20.8748 8.31055 20.3279C14.0137 12.1248 15.0684 11.2654 15.0684 8.21851C15.0684 4.07788 11.709 0.718506 7.56836 0.718506C3.38867 0.718506 0.0683594 4.07788 0.0683594 8.21851C0.0683594 11.2654 1.08398 12.1248 6.78711 20.3279ZM7.56836 11.3435C5.81055 11.3435 4.44336 9.97632 4.44336 8.21851C4.44336 6.49976 5.81055 5.09351 7.56836 5.09351C9.28711 5.09351 10.6934 6.49976 10.6934 8.21851C10.6934 9.97632 9.28711 11.3435 7.56836 11.3435Z" fill="#486284"/>
</svg>
