<svg width="21" height="16" viewBox="0 0 21 16" fill="none" xmlns="http://www.w3.org/2000/svg">
<path d="M19.6777 5.04346C18.7793 5.74658 17.6465 6.60596 13.6621 9.49658C12.8809 10.0825 11.4355 11.3716 10.0684 11.3716C8.66211 11.3716 7.25586 10.0825 6.43555 9.49658C2.45117 6.60596 1.31836 5.74658 0.419922 5.04346C0.263672 4.92627 0.0683594 5.04346 0.0683594 5.23877V13.2075C0.0683594 14.2622 0.888672 15.0825 1.94336 15.0825H18.1934C19.209 15.0825 20.0684 14.2622 20.0684 13.2075V5.23877C20.0684 5.04346 19.834 4.92627 19.6777 5.04346ZM10.0684 10.0825C10.9668 10.1216 12.2559 8.94971 12.9199 8.48096C18.1152 4.73096 18.5059 4.37939 19.6777 3.44189C19.9121 3.28564 20.0684 3.01221 20.0684 2.69971V1.95752C20.0684 0.941895 19.209 0.0825195 18.1934 0.0825195H1.94336C0.888672 0.0825195 0.0683594 0.941895 0.0683594 1.95752V2.69971C0.0683594 3.01221 0.185547 3.28564 0.419922 3.44189C1.5918 4.37939 1.98242 4.73096 7.17773 8.48096C7.8418 8.94971 9.13086 10.1216 10.0684 10.0825Z" fill="#486284"/>
</svg>
