<svg width="27" height="27" viewBox="0 0 27 27" fill="none" xmlns="http://www.w3.org/2000/svg">
<path d="M23.4375 0.433716C24.9609 0.433716 26.25 1.72278 26.25 3.24622V23.8712C26.25 25.4532 24.9609 26.6837 23.4375 26.6837H15.3516V17.7775H18.75L19.3945 13.5587H15.3516V10.8634C15.3516 9.69153 15.9375 8.57825 17.7539 8.57825H19.5703V5.00403C19.5703 5.00403 17.9297 4.71106 16.2891 4.71106C13.0078 4.71106 10.8398 6.76184 10.8398 10.3947V13.5587H7.14844V17.7775H10.8398V26.6837H2.8125C1.23047 26.6837 0 25.4532 0 23.8712V3.24622C0 1.72278 1.23047 0.433716 2.8125 0.433716H23.4375Z" fill="#486284"/>
</svg>
